<svg width="123" height="24" viewBox="0 0 123 24" fill="none" xmlns="http://www.w3.org/2000/svg">
<g clip-path="url(#clip0_428_3627)">
<path d="M12.3746 0C18.9326 7.20974e-05 24.2488 5.31905 24.2488 11.8801C24.2487 18.4412 18.9325 23.7599 12.3746 23.7599C5.81656 23.7599 0.500072 18.4412 0.5 11.8801C0.5 5.31898 5.81649 0 12.3746 0ZM8.63939 4.16685C8.60704 4.16657 8.57448 4.16986 8.54165 4.17219C8.5252 4.17357 8.50834 4.17466 8.49179 4.17624C8.4753 4.17847 8.45885 4.18101 8.44227 4.18327C8.42561 4.1856 8.40879 4.18793 8.39206 4.1903C8.3837 4.19126 8.37531 4.19287 8.36698 4.19465C8.35865 4.1963 8.35019 4.19767 8.34186 4.19931L8.26557 4.2144C8.25707 4.21656 8.24858 4.21893 8.24011 4.22109C8.20629 4.2299 8.17185 4.23809 8.13771 4.24855C8.00057 4.28877 7.86188 4.34657 7.72339 4.42131C7.70609 4.43071 7.6883 4.43942 7.6712 4.44977C7.65396 4.46006 7.63666 4.47055 7.61932 4.4809C7.60204 4.49146 7.58481 4.50209 7.56743 4.51272C7.55037 4.52397 7.53333 4.5359 7.51623 4.54755C7.48214 4.57131 7.44694 4.59339 7.41349 4.62021C7.39656 4.63313 7.37967 4.64637 7.36264 4.65936C7.34574 4.67256 7.32809 4.6848 7.31178 4.69954C7.27857 4.72803 7.24574 4.75653 7.21305 4.78461C7.18149 4.81447 7.15006 4.84419 7.11901 4.87365L7.09557 4.89542L7.07347 4.91887C7.05866 4.93423 7.04369 4.94935 7.02899 4.96474C7.01425 4.9801 6.99975 4.99543 6.98512 5.01062C6.971 5.02625 6.9575 5.04264 6.94362 5.05848C6.91621 5.0904 6.88828 5.12143 6.86165 5.15325C6.83529 5.18523 6.80942 5.21736 6.78434 5.24966C6.75826 5.28285 6.73656 5.31329 6.72176 5.33338C6.70552 5.35577 6.68821 5.37792 6.67323 5.4C6.54863 5.57709 6.44764 5.7445 6.36066 5.9029C6.27386 6.0613 6.2012 6.21082 6.13743 6.35256C6.07365 6.49443 6.01868 6.62873 5.96944 6.75669C5.87228 7.01263 5.7973 7.24389 5.73449 7.46283C5.67157 7.68182 5.62023 7.88853 5.57451 8.09565C5.52894 8.30263 5.48929 8.51016 5.45371 8.73113C5.41821 8.95224 5.38675 9.18686 5.35999 9.44798C5.3472 9.57854 5.33473 9.71589 5.3252 9.8615C5.31982 9.93432 5.31588 10.0094 5.31146 10.0865C5.3082 10.1637 5.30413 10.2432 5.3021 10.3252C5.29189 10.6533 5.29391 11.0219 5.32016 11.4435C5.34693 11.8648 5.39446 12.2338 5.45238 12.5618C5.46752 12.6483 5.48332 12.7319 5.49988 12.8129C5.47239 12.828 5.4446 12.8432 5.41588 12.8575C5.22137 12.9545 4.99844 13.0312 4.74121 13.06C4.64594 13.0702 4.55544 13.0754 4.46911 13.0751C4.38286 13.075 4.30047 13.0707 4.22182 13.0651C4.06446 13.0512 3.92127 13.0309 3.79076 13.0081C3.75824 13.0018 3.72612 12.9972 3.69504 12.9917C3.66413 12.9857 3.63392 12.9803 3.60435 12.9757C3.57491 12.9699 3.54577 12.9649 3.51767 12.9606C3.50358 12.9587 3.48978 12.9559 3.47617 12.9536C3.46254 12.9512 3.44902 12.9489 3.43568 12.9469C3.42234 12.9449 3.40915 12.9432 3.39619 12.9415C3.38325 12.9396 3.3705 12.9377 3.35803 12.9358C3.33283 12.9322 3.30813 12.9294 3.28407 12.9271C3.23627 12.9217 3.19096 12.918 3.14787 12.9174C3.10519 12.9155 3.0646 12.9158 3.02605 12.9191C2.98756 12.9224 2.95175 12.9264 2.91728 12.9338C2.88293 12.9409 2.85001 12.9509 2.81923 12.9623C2.78862 12.9734 2.75952 12.9868 2.73188 13.0024C2.62104 13.0649 2.533 13.1615 2.45411 13.2793C2.37513 13.3973 2.31571 13.5188 2.30619 13.6584C2.30388 13.6932 2.30477 13.7295 2.3092 13.7668C2.31373 13.8041 2.32252 13.8421 2.3353 13.882C2.34838 13.9216 2.36482 13.9637 2.38751 14.0059C2.41009 14.0481 2.43757 14.0921 2.47051 14.1379C2.50456 14.1826 2.5439 14.2295 2.58998 14.2775C2.61343 14.301 2.63832 14.325 2.66494 14.3494C2.67831 14.3616 2.69178 14.3744 2.70611 14.3866C2.72064 14.3987 2.73566 14.4109 2.75095 14.4231C2.76624 14.4353 2.78223 14.4474 2.79848 14.4599C2.81464 14.4724 2.83107 14.4854 2.84868 14.4974C2.88369 14.5219 2.92068 14.5466 2.95945 14.5718C2.99899 14.5959 3.0407 14.6203 3.08428 14.6451C3.12823 14.6693 3.17493 14.6929 3.2235 14.7171C3.4192 14.8114 3.65874 14.8966 3.94605 14.9548C4.08995 14.9826 4.24571 15.0037 4.41291 15.0124C4.57997 15.0213 4.75842 15.0165 4.94501 14.9963C4.97668 14.9935 5.00807 14.989 5.03905 14.9849C5.06993 14.9805 5.1008 14.9768 5.1311 14.9715C5.19159 14.961 5.25156 14.9514 5.30947 14.9384C5.33846 14.9323 5.36739 14.9264 5.3958 14.92C5.42404 14.9129 5.45203 14.9058 5.47979 14.8989C5.49377 14.8954 5.50789 14.892 5.52164 14.8885C5.53534 14.885 5.54864 14.8806 5.56214 14.8768C5.58918 14.869 5.61615 14.8614 5.64278 14.8537C5.81348 14.8023 5.96981 14.7415 6.11433 14.6772C6.12698 14.7039 6.13952 14.7307 6.15247 14.7573C6.24908 14.9547 6.35449 15.1489 6.47677 15.3502C6.49215 15.3754 6.50692 15.4009 6.52296 15.4262C6.5391 15.4515 6.55548 15.4769 6.57183 15.5026C6.60415 15.5542 6.63958 15.6055 6.67491 15.6583C6.69232 15.6847 6.71093 15.7111 6.72978 15.7376C6.74852 15.764 6.76748 15.7909 6.78667 15.818C6.8061 15.8449 6.82666 15.8716 6.84691 15.899C6.86747 15.9262 6.88725 15.9544 6.90915 15.9817C6.95236 16.0368 6.99609 16.0936 7.04369 16.1501C7.06734 16.1785 7.09064 16.2076 7.11566 16.2362C7.14067 16.2648 7.16593 16.2937 7.19163 16.3232C7.19807 16.3306 7.20459 16.3379 7.21103 16.3453C7.21768 16.3526 7.22439 16.3597 7.23111 16.3671C7.24447 16.3816 7.25805 16.3965 7.27162 16.4113C7.29883 16.4408 7.32614 16.4712 7.35527 16.5007C7.38409 16.5303 7.41329 16.5605 7.44296 16.5911C7.4734 16.6209 7.50458 16.6511 7.53597 16.6818C7.66315 16.8035 7.80304 16.9277 7.95865 17.0518C8.11431 17.1759 8.28651 17.2989 8.4764 17.4191C8.66653 17.5392 8.85076 17.6411 9.02691 17.7295C9.07115 17.7511 9.11426 17.7734 9.15744 17.7934C9.20072 17.8134 9.24336 17.833 9.28527 17.8523C9.32732 17.8714 9.36947 17.8888 9.41045 17.9066C9.43095 17.9153 9.45123 17.924 9.47135 17.9327C9.49174 17.9408 9.51217 17.9488 9.53225 17.9568C9.57248 17.9728 9.61193 17.9889 9.65106 18.004C9.69044 18.0185 9.72909 18.0328 9.7672 18.0469C9.78632 18.0539 9.80524 18.0608 9.82409 18.0676C9.84294 18.0741 9.86168 18.0804 9.88033 18.0867C9.91754 18.0994 9.95448 18.1122 9.99074 18.1246C10.027 18.1364 10.0628 18.1472 10.0982 18.1584C10.1336 18.1692 10.1686 18.1812 10.2033 18.1908C10.2379 18.2008 10.2721 18.2107 10.3057 18.2203C10.3393 18.23 10.3728 18.2398 10.4057 18.2481C10.6692 18.3189 10.9077 18.3712 11.1333 18.4128C11.3588 18.4538 11.5715 18.4849 11.7842 18.5096C11.999 18.5326 12.2036 18.5489 12.4275 18.5588C12.6505 18.5677 12.8891 18.569 13.1563 18.5548C13.2231 18.552 13.2919 18.5462 13.3625 18.5407C13.3801 18.5394 13.3979 18.5378 13.4157 18.5364C13.4336 18.5348 13.4518 18.5328 13.4699 18.531C13.5062 18.5272 13.543 18.5232 13.5804 18.5193C13.6177 18.5157 13.6559 18.5106 13.6945 18.5056C13.7329 18.5005 13.7719 18.4952 13.8116 18.4895C13.8514 18.4832 13.8919 18.477 13.9328 18.4704C13.9532 18.4671 13.9737 18.4638 13.9944 18.4604C14.0151 18.4566 14.0362 18.4526 14.0572 18.4487C14.2259 18.4184 14.405 18.3776 14.5951 18.3264C14.7852 18.275 14.9868 18.212 15.1991 18.1309C15.6238 17.9691 15.9853 17.7808 16.2942 17.5865C16.4489 17.4897 16.5897 17.3895 16.7199 17.2902C16.7853 17.2411 16.8471 17.1902 16.9073 17.1412C16.9368 17.1159 16.9659 17.0908 16.9946 17.0662C17.0089 17.0537 17.0233 17.0415 17.0371 17.029C17.0511 17.0165 17.065 17.004 17.0786 16.9915C17.2981 16.7932 17.4798 16.597 17.6398 16.4032C17.657 16.3826 17.6731 16.3613 17.6897 16.3406C17.8763 16.3846 18.0664 16.4192 18.266 16.4417C18.5148 16.4696 18.7786 16.4808 19.0669 16.4695C19.103 16.4684 19.1391 16.4655 19.176 16.4635C19.2127 16.4611 19.2501 16.4595 19.2874 16.4558C19.3248 16.4524 19.363 16.4489 19.4015 16.4454C19.4111 16.4446 19.4207 16.4436 19.4303 16.4427C19.4399 16.4416 19.4497 16.4406 19.4594 16.4394C19.4788 16.4371 19.4984 16.4347 19.518 16.4324C19.5376 16.4299 19.5574 16.4275 19.5772 16.425C19.5871 16.4237 19.597 16.4226 19.607 16.4213C19.617 16.4198 19.6268 16.4181 19.6368 16.4166C19.6768 16.4105 19.7175 16.4045 19.7586 16.3982C19.7792 16.3952 19.7999 16.3917 19.8205 16.3879C19.8411 16.384 19.8618 16.3803 19.8828 16.3764C19.9247 16.3688 19.9675 16.3611 20.01 16.3517C20.3526 16.2815 20.7257 16.1768 21.1301 16.0232V16.0222C21.4291 15.9085 21.6759 15.788 21.881 15.6713C21.9321 15.6419 21.9815 15.6137 22.0273 15.5846C22.0733 15.5556 22.1172 15.5271 22.1588 15.4992C22.1798 15.4853 22.1997 15.4711 22.2191 15.457C22.2386 15.4429 22.2578 15.4289 22.2763 15.4152C22.3131 15.3876 22.3482 15.361 22.3807 15.3341C22.4456 15.2802 22.5037 15.2292 22.5537 15.1791C22.6035 15.1288 22.6462 15.0807 22.6829 15.0345C22.7556 14.9413 22.8033 14.8555 22.8322 14.7764C22.8885 14.6164 22.8703 14.4823 22.8201 14.3578C22.7698 14.2334 22.6872 14.1184 22.6123 13.9979C22.5373 13.8774 22.4687 13.752 22.3797 13.6497C22.2908 13.5474 22.1817 13.4677 22.0283 13.4374C21.9512 13.4212 21.8632 13.4175 21.7609 13.4277C21.7096 13.4322 21.6546 13.4404 21.5959 13.4528C21.5371 13.4646 21.474 13.4793 21.4068 13.499C21.3732 13.5088 21.3381 13.5187 21.3021 13.5301C21.284 13.5358 21.2657 13.5416 21.2472 13.5479C21.2286 13.5542 21.2096 13.5608 21.1903 13.567C21.1518 13.5798 21.1121 13.5938 21.0712 13.6088C21.0302 13.624 20.9873 13.6386 20.9437 13.6553C20.7686 13.7206 20.5711 13.7988 20.347 13.884C20.0432 13.9994 19.7775 14.0758 19.5428 14.1281C19.4254 14.1539 19.3155 14.1748 19.2124 14.1894C19.1608 14.1979 19.1111 14.2033 19.0625 14.2095C19.0503 14.2112 19.0383 14.2122 19.0264 14.2132C19.0145 14.2142 19.0026 14.2154 18.9909 14.2165C18.9675 14.2185 18.944 14.2216 18.9213 14.2229C18.8762 14.2261 18.8324 14.2284 18.7898 14.2303C18.8549 14.0216 18.9164 13.7952 18.9692 13.5459C19.0419 13.2018 19.1009 12.8141 19.1294 12.3717C19.1439 12.1503 19.1482 11.943 19.1452 11.7482C19.1422 11.5534 19.1323 11.3709 19.1177 11.1994C19.1031 11.0279 19.0838 10.8672 19.0612 10.7156C19.0386 10.564 19.0125 10.4216 18.9839 10.2864C18.9553 10.1512 18.9244 10.0231 18.8915 9.90069C18.8584 9.77839 18.8235 9.66168 18.7867 9.54878C18.7495 9.43584 18.7107 9.32661 18.6696 9.21964C18.628 9.1127 18.5843 9.00765 18.5378 8.90325C18.4435 8.69434 18.3388 8.48688 18.2071 8.26875C18.1413 8.15973 18.0687 8.04795 17.9849 7.93224C17.9009 7.81666 17.8058 7.69694 17.6917 7.57334C17.6779 7.55787 17.6625 7.54234 17.6475 7.52678C17.6325 7.51125 17.6177 7.49554 17.602 7.47991C17.586 7.46438 17.5697 7.44874 17.5535 7.43304C17.5453 7.42522 17.5373 7.4172 17.5287 7.40928C17.5201 7.40133 17.5113 7.39341 17.5027 7.38549C17.4852 7.36968 17.4681 7.35408 17.4498 7.33827C17.4311 7.3225 17.4121 7.30635 17.3932 7.29041L17.3788 7.27869L17.3617 7.26497C17.3501 7.25585 17.3383 7.24659 17.3266 7.23751C17.3031 7.21941 17.2792 7.20137 17.2546 7.18426C17.1572 7.11377 17.0516 7.04942 16.9384 6.99343C16.8252 6.93754 16.704 6.89037 16.5756 6.85581C16.4472 6.82135 16.3115 6.79937 16.1707 6.79488C16.1355 6.79409 16.0999 6.79299 16.0643 6.79488C16.0285 6.79632 15.9925 6.79714 15.9565 6.80222C15.9205 6.80643 15.8842 6.81093 15.8477 6.81631C15.8113 6.82286 15.7745 6.83009 15.7376 6.83774C15.7008 6.84497 15.6639 6.85467 15.6268 6.86417C15.6084 6.86914 15.5899 6.87394 15.5713 6.87891C15.5527 6.88399 15.5342 6.88999 15.5157 6.89565C15.4786 6.90741 15.441 6.91941 15.4036 6.93281C15.3854 6.93984 15.367 6.94656 15.3487 6.95355C15.3328 6.95983 15.3164 6.96631 15.3002 6.97265C15.1716 7.026 15.0426 7.0919 14.917 7.17086C14.7914 7.24989 14.6774 7.3367 14.575 7.42735C14.4731 7.51834 14.3828 7.61263 14.3022 7.70726C14.1412 7.89723 14.021 8.08803 13.9237 8.26941C13.828 8.45133 13.7554 8.62474 13.6975 8.78873C13.6397 8.95275 13.5965 9.10755 13.5623 9.25447C13.5281 9.40152 13.5031 9.54062 13.4836 9.67365C13.4644 9.80654 13.4503 9.93367 13.4415 10.0564C13.4325 10.1791 13.4263 10.298 13.4251 10.4143C13.4248 10.4288 13.4247 10.4437 13.4244 10.4581V10.5013C13.4245 10.5301 13.4247 10.5588 13.4247 10.5874C13.426 10.6445 13.4267 10.7018 13.4294 10.7585C13.4383 10.9857 13.4594 11.2108 13.494 11.4476C13.5121 11.5657 13.5331 11.6871 13.5593 11.8125C13.5855 11.9379 13.6156 12.0679 13.6523 12.2032C13.7265 12.4738 13.8234 12.7676 13.9636 13.0912C14.0338 13.2529 14.1151 13.422 14.2112 13.5981C14.3074 13.7741 14.4177 13.9577 14.5485 14.1462C14.8107 14.5228 15.0834 14.8281 15.3514 15.0783C15.489 15.2072 15.6255 15.3212 15.7597 15.4236C15.7508 15.4315 15.742 15.4396 15.7329 15.4477C15.5888 15.5734 15.4205 15.7012 15.2152 15.8283C15.0092 15.9542 14.7656 16.0796 14.4679 16.192C14.319 16.2481 14.1749 16.2938 14.0365 16.3303C14.0024 16.3401 13.9677 16.3475 13.9341 16.356C13.9172 16.3601 13.9002 16.3643 13.8836 16.3684C13.867 16.3724 13.8502 16.3759 13.8337 16.3795C13.8005 16.3866 13.7679 16.394 13.7357 16.4006C13.7031 16.4067 13.6711 16.4127 13.6396 16.4186C13.6082 16.4249 13.5768 16.4297 13.5459 16.4347C13.5149 16.4395 13.4847 16.4449 13.4545 16.4491C13.4242 16.4531 13.3942 16.4569 13.3648 16.4608C13.3502 16.4628 13.3358 16.4646 13.3213 16.4665C13.3067 16.4681 13.2922 16.4697 13.2778 16.4712C13.2491 16.4743 13.2205 16.4773 13.1925 16.4803C13.1646 16.4834 13.1366 16.4849 13.1091 16.4873C13.0818 16.4894 13.0549 16.4916 13.0282 16.4936C13.0013 16.4951 12.9746 16.4965 12.9485 16.498C12.7388 16.5091 12.5477 16.5082 12.3669 16.5017C12.3216 16.4994 12.2768 16.4971 12.2327 16.495C12.2107 16.4941 12.1887 16.4926 12.1667 16.4909C12.1449 16.4894 12.1232 16.4878 12.1015 16.4863C12.0798 16.4847 12.0581 16.4832 12.0366 16.4816C12.0153 16.4797 11.9948 16.4772 11.974 16.4752C11.9325 16.471 11.8909 16.4675 11.8498 16.4628C11.6856 16.4439 11.5238 16.4193 11.3552 16.3882C11.1867 16.357 11.0117 16.3174 10.823 16.2656C10.6342 16.214 10.4326 16.1475 10.2133 16.0587C10.1856 16.0483 10.1585 16.0354 10.1306 16.0236C10.103 16.0113 10.0742 16 10.0463 15.9864C10.0182 15.9734 9.98941 15.9604 9.96031 15.9469C9.93176 15.9327 9.90277 15.918 9.8733 15.9034C9.7561 15.8435 9.63434 15.7755 9.50984 15.6961C9.38551 15.6167 9.2732 15.5362 9.1705 15.456C9.06783 15.3757 8.97523 15.2949 8.88969 15.216C8.86858 15.1959 8.8473 15.1769 8.82712 15.157C8.80683 15.1371 8.78661 15.1177 8.76687 15.0984C8.7472 15.0793 8.72859 15.0592 8.70967 15.0402C8.70022 15.0306 8.6909 15.0209 8.68154 15.0114C8.67256 15.0018 8.66365 14.9921 8.65477 14.9826C8.63678 14.9634 8.61907 14.9444 8.60155 14.9257C8.58442 14.9065 8.56735 14.8874 8.5507 14.8688C8.5424 14.8595 8.53415 14.8504 8.52592 14.8413C8.51787 14.8318 8.50971 14.8225 8.50183 14.8132C8.48586 14.7946 8.47023 14.776 8.45464 14.7579C8.33178 14.6106 8.22613 14.4699 8.13 14.3317C8.03401 14.1934 7.94752 14.0573 7.8663 13.9159C7.80019 13.8004 7.73768 13.6813 7.67723 13.5536C7.83199 13.3929 7.96904 13.2355 8.09755 13.0741C8.23377 12.903 8.36239 12.7284 8.49011 12.5397C8.6178 12.3509 8.74651 12.1485 8.879 11.92C8.91248 11.863 8.94548 11.8039 8.97972 11.7435C9.0131 11.6829 9.04768 11.6208 9.08181 11.5564C9.15069 11.4276 9.22115 11.2906 9.29263 11.1439C9.43571 10.8504 9.58492 10.5177 9.7354 10.13C9.88519 9.74225 9.999 9.39624 10.0912 9.08304C10.1833 8.76981 10.2531 8.48904 10.3097 8.22991C10.3382 8.10041 10.3628 7.97609 10.3847 7.85558C10.4067 7.7352 10.4255 7.61839 10.4419 7.50367C10.4584 7.38919 10.4719 7.27635 10.4831 7.16383C10.4944 7.05147 10.5027 6.93874 10.5081 6.82433C10.5112 6.76738 10.5127 6.7091 10.5142 6.65088C10.5143 6.62026 10.5147 6.58954 10.5148 6.55882V6.54408L10.5145 6.52735L10.5142 6.49354C10.5135 6.47105 10.5128 6.44846 10.5122 6.4259C10.5045 6.24562 10.4892 6.06216 10.4576 5.87846C10.4535 5.85566 10.4493 5.83282 10.4452 5.80982C10.4431 5.79837 10.4414 5.78637 10.4389 5.77502C10.4364 5.76367 10.4337 5.75225 10.4312 5.74083C10.4206 5.69547 10.4116 5.64847 10.3984 5.60359C10.3921 5.58082 10.3859 5.55809 10.3796 5.53526L10.3749 5.51787L10.3696 5.50111C10.3659 5.48986 10.3622 5.47855 10.3586 5.4673C10.3513 5.44471 10.3439 5.42211 10.3365 5.39931C10.3285 5.37693 10.3198 5.35467 10.3114 5.33235C10.2777 5.2428 10.2374 5.15571 10.1922 5.06986C10.1686 5.02797 10.145 4.98483 10.1179 4.94431C10.1114 4.93392 10.1048 4.92353 10.0982 4.91318C10.0917 4.90286 10.0851 4.89243 10.0778 4.8827C10.0636 4.86278 10.049 4.84265 10.0346 4.82242C9.97494 4.74312 9.90771 4.66728 9.83245 4.5961C9.75774 4.52441 9.67275 4.45982 9.57978 4.40122C9.55641 4.38686 9.53197 4.37369 9.50785 4.3597C9.48335 4.3464 9.45812 4.33402 9.43287 4.3212C9.4073 4.30917 9.38081 4.29792 9.35456 4.2864C9.3278 4.27605 9.30059 4.26669 9.27324 4.25691C9.16412 4.21738 9.04558 4.19558 8.92352 4.17926C8.89281 4.17621 8.86166 4.17298 8.83047 4.16986C8.79915 4.16859 8.76756 4.16757 8.73575 4.16619C8.71992 4.16513 8.70392 4.16565 8.68791 4.16585C8.67184 4.16613 8.65553 4.16657 8.63939 4.16685ZM16.1278 8.68392C16.1542 8.69205 16.1771 8.70552 16.1971 8.72009C16.2022 8.72537 16.2042 8.72479 16.2182 8.73751C16.2297 8.7467 16.2415 8.75842 16.2534 8.76898C16.2771 8.79216 16.3014 8.81637 16.3253 8.84397C16.3732 8.8979 16.4197 8.95858 16.4632 9.02211C16.5067 9.08571 16.5476 9.15216 16.5857 9.21998C16.6237 9.2879 16.6592 9.35729 16.6928 9.42758C16.7263 9.49797 16.7575 9.56997 16.7874 9.6432C16.8469 9.79001 16.9001 9.94347 16.9491 10.1109C16.9978 10.2786 17.0428 10.4605 17.081 10.6664C17.1193 10.8722 17.1515 11.1022 17.1706 11.3652C17.1898 11.628 17.1959 11.9247 17.1733 12.2595C17.1623 12.4267 17.1445 12.5825 17.1231 12.7276C17.1017 12.8727 17.0765 13.0073 17.0485 13.1327C17.0205 13.2582 16.9898 13.3744 16.9578 13.4829C16.9387 13.5467 16.9189 13.6077 16.8989 13.6664C16.8404 13.6214 16.7801 13.5727 16.7195 13.5178C16.556 13.3695 16.385 13.1812 16.2152 12.9372C16.0468 12.6918 15.9197 12.4556 15.8193 12.2367C15.7188 12.0176 15.6449 11.8155 15.5847 11.6293C15.525 11.4429 15.4799 11.2716 15.4441 11.1087C15.4261 11.0273 15.4113 10.9479 15.3976 10.8696C15.3945 10.8501 15.3913 10.8305 15.3882 10.811L15.3836 10.7819L15.3795 10.7528C15.3768 10.7335 15.3739 10.7141 15.3711 10.6949L15.3641 10.6369C15.3616 10.6177 15.3596 10.5983 15.3578 10.579C15.3559 10.5598 15.354 10.5405 15.3521 10.5211C15.3491 10.4825 15.3452 10.4434 15.3434 10.4046C15.3406 10.3654 15.3396 10.3263 15.338 10.2867C15.3375 10.267 15.3374 10.2474 15.337 10.2275C15.3369 10.2176 15.3368 10.2077 15.3367 10.1977C15.3368 10.1878 15.3369 10.1775 15.337 10.1675C15.3369 10.1272 15.3387 10.0869 15.34 10.0456C15.3423 10.0049 15.3445 9.96312 15.3484 9.92143C15.3557 9.83777 15.3666 9.75206 15.3825 9.66497C15.3985 9.57796 15.4194 9.48936 15.4471 9.40145C15.4749 9.31385 15.5087 9.22581 15.5505 9.14331C15.5558 9.13313 15.5612 9.12288 15.5666 9.11249C15.5717 9.10183 15.5779 9.09254 15.5833 9.08235C15.5943 9.06189 15.6067 9.04347 15.6185 9.02376C15.6433 8.98629 15.6696 8.94963 15.6975 8.91597C15.7541 8.85014 15.8151 8.79278 15.8852 8.75088C15.9202 8.72955 15.9555 8.71214 15.9913 8.69767L15.998 8.6953L16.0013 8.69397C16.0031 8.69328 16.0047 8.69211 16.0067 8.69198C16.0107 8.69119 16.0147 8.68971 16.0184 8.68793C16.026 8.68543 16.0336 8.68358 16.0412 8.68193C16.0712 8.67312 16.1015 8.67621 16.1278 8.68392ZM8.49412 6.32311C8.50855 6.32565 8.52232 6.32959 8.53462 6.33583C8.54693 6.34227 8.55765 6.35098 8.56643 6.36127C8.58418 6.3815 8.59439 6.40618 8.59987 6.42991C8.60546 6.4537 8.60656 6.47709 8.60556 6.49821C8.6046 6.51936 8.60155 6.53883 8.5972 6.55615C8.59288 6.57339 8.58726 6.58865 8.58116 6.60202L8.5788 6.60703L8.57815 6.60837V6.60905L8.5778 6.6107C8.57743 6.61354 8.57674 6.61464 8.57647 6.62043C8.57493 6.63926 8.57393 6.65774 8.57212 6.67666C8.57037 6.69562 8.56883 6.71475 8.56708 6.73358L8.56074 6.79083C8.54333 6.94474 8.51749 7.10424 8.48411 7.27567C8.4507 7.44717 8.40957 7.63121 8.35793 7.83648C8.30581 8.04171 8.24364 8.26831 8.16383 8.5249C8.08405 8.78136 7.98741 9.06823 7.86263 9.39007C7.73748 9.71146 7.61565 9.98709 7.50119 10.2285C7.44403 10.3493 7.38806 10.4615 7.33419 10.5666C7.28032 10.6718 7.22813 10.7701 7.17724 10.8623C7.15949 10.8948 7.14078 10.9259 7.12333 10.957C7.12217 10.9062 7.12073 10.8563 7.12035 10.8074C7.11908 10.6516 7.12145 10.5051 7.12703 10.3671C7.13241 10.2291 7.14002 10.0992 7.15013 9.97666C7.15455 9.91533 7.16075 9.85581 7.16586 9.79786C7.17193 9.74002 7.17727 9.68362 7.18392 9.6288C7.23577 9.18994 7.3026 8.84307 7.38505 8.50378C7.42652 8.33424 7.47278 8.16658 7.52696 7.99186C7.54029 7.94818 7.55489 7.90447 7.56911 7.85959C7.58443 7.81536 7.5992 7.76952 7.61565 7.72399C7.6237 7.70112 7.63179 7.67798 7.64008 7.6547C7.64862 7.63162 7.65742 7.60827 7.66616 7.58472C7.67052 7.57286 7.6748 7.56082 7.67922 7.54889C7.68374 7.53706 7.68868 7.5253 7.69327 7.51341C7.70269 7.48951 7.71181 7.46493 7.72171 7.44072C7.76058 7.34355 7.80345 7.24358 7.85125 7.14072C7.89906 7.03797 7.95235 6.93243 8.01188 6.82635C8.07144 6.72034 8.13758 6.61354 8.21067 6.51127C8.21982 6.49882 8.22911 6.48607 8.23847 6.47345C8.24587 6.46327 8.24703 6.4619 8.25015 6.45802C8.25574 6.45079 8.26184 6.44352 8.2679 6.43629C8.28017 6.42213 8.29357 6.40776 8.30807 6.39408C8.33727 6.36675 8.36886 6.34581 8.40077 6.3335C8.43274 6.32109 8.46523 6.31831 8.49412 6.32311Z" fill="#FFFFFF"/>
<path d="M32.6845 21.9832C32.6845 21.8025 32.9003 21.476 33.3321 21.0039C33.7638 20.5218 34.0298 20.0396 34.1302 19.5575C34.2407 19.0753 34.2959 16.534 34.2959 11.9336C34.2959 7.33313 34.1905 4.54577 33.9796 3.57144C33.8792 3.09933 33.6684 2.75279 33.3471 2.53181C32.7648 2.11998 32.4736 1.899 32.4736 1.86886C32.4736 1.49721 32.6694 1.23605 33.061 1.08538C33.8039 0.794087 34.6724 0.648438 35.6663 0.648438H36.1632C36.6251 0.648438 36.9514 0.834263 37.1423 1.20592C37.3431 1.57757 37.4435 2.39621 37.4435 3.66182L37.4284 4.21931C37.4185 4.59096 37.4133 4.96262 37.4133 5.33428L37.3832 6.44921C37.3832 6.82087 37.3832 7.19253 37.3832 7.56419C37.3832 8.88004 37.6142 9.53795 38.0758 9.53795C38.1261 9.5279 38.3821 9.42244 38.8441 9.22156C40.2396 8.59876 41.4092 8.28737 42.353 8.28737C44.1199 8.28737 45.3598 8.99555 46.0726 10.4118C46.5445 11.3761 46.7806 13.7467 46.7806 17.5234C46.7806 18.9799 46.8306 19.8889 46.931 20.2506C47.0417 20.6021 47.3279 20.9687 47.7895 21.3504C48.2614 21.7321 48.4975 21.9732 48.4975 22.0737C48.4975 22.385 48.2915 22.596 47.88 22.7065C47.4783 22.817 46.4441 22.8722 44.7775 22.8722H44.2505C43.1562 22.8722 42.609 22.6512 42.609 22.2093C42.609 22.1088 42.7395 21.8577 43.0007 21.4559C43.2614 21.0441 43.4321 20.582 43.5126 20.0698C43.5928 19.5575 43.6329 18.2165 43.6329 16.0469C43.6329 13.8772 43.5325 12.5112 43.3317 11.9487C42.6391 11.0446 41.8711 10.4922 41.0278 10.2913C39.8732 10.2913 38.9493 10.7031 38.2567 11.5268C37.7447 12.1295 37.4887 13.5056 37.4887 15.6551C37.4887 17.7946 37.5388 19.1607 37.6392 19.7533C37.7396 20.3359 37.9555 20.8683 38.2869 21.3504C38.6282 21.8226 38.7989 22.1138 38.7989 22.2243C38.7989 22.5859 37.7797 22.7667 35.7417 22.7667C33.7035 22.7667 32.6845 22.5056 32.6845 21.9832Z" fill="#FFFFFF"/>
<path d="M65.2226 21.1697C65.6643 21.5112 65.885 21.7573 65.885 21.9079C65.885 22.0486 65.8096 22.1842 65.6592 22.3147C65.2274 22.7065 64.3038 22.9024 62.8882 22.9024C62.4262 22.9024 62.065 22.827 61.8039 22.6763C61.553 22.5156 61.3268 22.2294 61.126 21.8175C60.9355 21.4057 60.7747 21.1998 60.6442 21.1998C60.5136 21.2098 60.2227 21.3756 59.7706 21.697C58.5058 22.6111 57.296 23.0681 56.1415 23.0681C56.1312 23.0681 56.1161 23.0681 56.0963 23.0681H55.6442C53.9876 23.0681 52.7879 22.365 52.0449 20.9587C51.6635 20.2255 51.4678 18.4325 51.4579 15.5798C51.4579 12.7171 51.4126 11.1451 51.3221 10.8639C51.2317 10.5726 50.9106 10.3014 50.3581 10.0502C49.816 9.78906 49.5449 9.58818 49.5449 9.44754C49.5449 9.07592 49.7207 8.83482 50.0723 8.72435C50.8554 8.47321 51.8544 8.34766 53.0692 8.34766C53.7717 8.34766 54.2186 8.63394 54.4095 9.20648C54.6604 9.93975 54.7858 11.6925 54.7858 14.4648C54.7858 17.2271 54.9064 18.9046 55.1473 19.4972C55.5589 20.5117 56.307 21.019 57.3913 21.019C57.9537 21.019 58.5109 20.8733 59.063 20.582C59.6253 20.2907 60.0619 19.899 60.3731 19.4068C60.6843 18.9146 60.8399 17.5636 60.8399 15.3538C60.8399 13.1339 60.7648 11.7377 60.614 11.1652C60.4735 10.5927 60.2528 10.1457 59.9516 9.82424C59.6504 9.49276 59.4996 9.23161 59.4996 9.04074C59.4996 8.59876 60.6795 8.37779 63.0386 8.37779C63.5307 8.37779 63.8522 8.4883 64.0026 8.70927C64.1531 8.92019 64.2284 9.31194 64.2284 9.88448L64.1832 10.7734L64.1082 14.7813C64.1082 17.3929 64.1832 19.0251 64.334 19.678C64.4844 20.3209 64.7805 20.8181 65.2226 21.1697Z" fill="#FFFFFF"/>
<path d="M78.2428 19.995C78.323 19.6033 78.3631 18.2623 78.3631 15.9721C78.3631 13.6819 78.1876 12.1853 77.836 11.4822C77.4847 10.779 76.8322 10.4275 75.8782 10.4275C75.3062 10.4275 74.7137 10.6535 74.1013 11.1055C73.4889 11.5475 73.0821 12.0396 72.8813 12.5821C72.6805 13.1245 72.5801 14.3901 72.5801 16.3789C72.5801 18.3577 72.5951 19.5781 72.6253 20.0402C72.6654 20.5022 72.7408 20.8638 72.8511 21.125L73.0472 21.5017C73.2075 21.8131 73.2881 22.0391 73.2881 22.1797C73.2881 22.5513 72.5201 22.7372 70.9838 22.7372C69.4478 22.7372 68.4488 22.5815 67.9869 22.2701L67.7158 21.9838C67.7158 21.7026 67.8162 21.4615 68.0171 21.2606C68.6195 20.6479 68.9759 20.1808 69.0863 19.8594C69.1966 19.5379 69.2521 18.1166 69.2521 15.5954C69.2521 13.0642 69.0362 11.4119 68.6044 10.6384L68.2881 10.2316C68.027 9.90013 67.8964 9.64902 67.8964 9.47824C67.8964 9.29745 68.0822 9.09153 68.4536 8.86052C68.8354 8.61942 69.4228 8.4989 70.2158 8.4989C71.0191 8.4989 71.6215 8.71487 72.0228 9.14677C72.4245 9.56865 72.7106 9.77958 72.8813 9.77958L73.3333 9.56865L74.4779 8.89065C75.4114 8.39845 76.3603 8.15234 77.324 8.15234C78.288 8.15234 79.2064 8.44868 80.08 9.0413C80.9535 9.62389 81.5008 9.91518 81.7215 9.91518L82.2335 9.67412L82.7907 9.34264C83.2626 9.0614 83.7698 8.81029 84.3119 8.58932C84.8339 8.36831 85.5268 8.25784 86.39 8.25784C88.0367 8.25784 89.2012 8.94085 89.8842 10.3069C90.3859 11.3114 90.6371 13.6619 90.6371 17.3583C90.6371 18.9453 90.6871 19.8694 90.7875 20.1306C90.8879 20.3817 91.159 20.6881 91.6008 21.0497C92.0425 21.4113 92.2635 21.6222 92.2635 21.6825V22.0441L91.9774 22.3153C91.4955 22.6066 90.2707 22.7522 88.3026 22.7522C87.3588 22.7522 86.887 22.5212 86.887 22.0592C86.887 22.0089 86.9524 21.7829 87.083 21.3811C87.2235 20.9793 87.3037 20.6579 87.3239 20.4169C87.3541 20.1657 87.3691 18.885 87.3691 16.5748C87.3691 14.2645 87.2536 12.8181 87.0227 12.2355C86.8016 11.6429 86.5206 11.1908 86.1793 10.8795C85.8479 10.558 85.3411 10.3973 84.6584 10.3973C83.9754 10.3973 83.3983 10.5832 82.9264 10.9548C82.4545 11.3264 82.1231 11.7433 81.9322 12.2054C81.7417 12.6574 81.6464 14.0335 81.6464 16.3337C81.6464 18.6339 81.7167 19.9649 81.8572 20.3264C81.9977 20.678 82.2588 21.0246 82.6403 21.3661C83.0316 21.7076 83.2276 21.9336 83.2276 22.0441C83.2276 22.5463 82.349 22.7975 80.592 22.7975H78.4837C77.4296 22.7975 76.9025 22.6468 76.9025 22.3454C76.9025 22.034 77.0331 21.7377 77.2938 21.4565C77.8562 20.8638 78.1725 20.3767 78.2428 19.995Z" fill="#FFFFFF"/>
<path d="M103.31 13.0167V12.5497C103.31 11.8063 103.044 11.1384 102.512 10.5457C101.98 9.94306 101.327 9.64172 100.554 9.64172H100.268C100.127 9.66181 100.032 9.67186 99.9821 9.67186C99.2793 9.67186 98.6117 10.0736 97.9791 10.8772C97.3564 11.6808 97.0452 12.5396 97.0452 13.4537V13.6495C97.0452 13.971 97.2361 14.1317 97.6175 14.1317C97.7683 14.1618 97.8485 14.1769 97.8585 14.1769L98.2049 14.1919H98.2954L98.4006 14.1769L101.307 14.0112L101.85 13.9509C102.823 13.9509 103.31 13.6395 103.31 13.0167ZM97.0452 17.0095C97.0452 18.1546 97.477 19.1138 98.3406 19.8873C99.2039 20.6607 100.298 21.0474 101.624 21.0474C102.156 21.0474 102.638 20.9721 103.069 20.8214C103.511 20.6607 103.988 20.4699 104.5 20.2489C105.022 20.0279 105.348 19.9174 105.479 19.9174C105.88 19.9174 106.081 20.1334 106.081 20.5653C106.081 21.1479 105.338 21.7706 103.853 22.4336C102.889 22.8655 101.854 23.0814 100.75 23.0814H100.419C98.5312 23.0814 96.965 22.5089 95.72 21.3638C95.0473 20.7411 94.5254 19.9475 94.1539 18.9832C93.7824 18.0089 93.5967 16.9643 93.5967 15.8493L93.6118 15.5028V15.1562C93.6118 14.1919 93.8325 13.2427 94.2742 12.3086C94.7262 11.3744 95.2632 10.606 95.8855 10.0033C97.2008 8.73771 98.7621 8.09989 100.569 8.08984C103.3 8.08984 105.117 9.15455 106.021 11.284C106.302 11.957 106.443 12.5748 106.443 13.1372V13.4386C106.443 14.1317 106.157 14.5987 105.584 14.8398C105.012 15.0709 103.662 15.2617 101.533 15.4124C99.4047 15.563 98.2502 15.6635 98.0696 15.7137C97.3866 15.8845 97.0452 16.3164 97.0452 17.0095Z" fill="#FFFFFF"/>
<path d="M111.542 15.0502V15.6077C111.542 17.3153 111.873 18.7316 112.536 19.8566C112.847 20.389 113.243 20.8108 113.725 21.1222C114.207 21.4336 114.694 21.5893 115.186 21.5893H115.487C116.401 21.5893 117.189 21.1473 117.852 20.2634C118.524 19.3694 118.861 18.1038 118.861 16.4665V15.3968C118.861 13.7796 118.524 12.4085 117.852 11.2835C117.189 10.1484 116.346 9.5809 115.322 9.5809H114.855C113.931 9.5809 113.148 10.0781 112.506 11.0725C111.863 12.067 111.542 13.3929 111.542 15.0502ZM122.49 15.1105V15.8638C122.49 16.6574 122.33 17.5262 122.008 18.4704C121.336 20.4392 119.995 21.8153 117.987 22.5988C117.114 22.9403 116.27 23.111 115.457 23.111H114.96C113.043 23.111 111.441 22.4682 110.156 21.1825C109.574 20.5999 109.102 19.8315 108.74 18.8772C108.379 17.923 108.198 16.9085 108.198 15.8337V15.5776C108.198 14.6032 108.369 13.6189 108.711 12.6244C109.373 10.6858 110.673 9.33984 112.611 8.58652C113.484 8.245 114.323 8.07422 115.126 8.07422H115.879C116.773 8.07422 117.651 8.2751 118.514 8.67689C120.151 9.4403 121.291 10.6557 121.933 12.3231C122.305 13.3075 122.49 14.2366 122.49 15.1105Z" fill="#FFFFFF"/>
</g>
<defs>
<clipPath id="clip0_428_3627">
<rect width="122" height="24" fill="white" transform="translate(0.5)"/>
</clipPath>
</defs>
</svg>
